/* XPM */
static char * settingsWindow_xpm[] = {
"16 16 113 2",
"  	c None",
". 	c #ED0D08",
"+ 	c #EF0F07",
"@ 	c #F01106",
"# 	c #F4200B",
"$ 	c #F11E0F",
"% 	c #EE1707",
"& 	c #F31C05",
"* 	c #FC7251",
"= 	c #F02112",
"- 	c #EF1807",
"; 	c #FC8750",
"> 	c #F33816",
", 	c #FE6C39",
"' 	c #FB8463",
") 	c #EF1B0F",
"! 	c #FA5713",
"~ 	c #FF8836",
"{ 	c #FEA25C",
"] 	c #F44927",
"^ 	c #F73A0D",
"/ 	c #FF8747",
"( 	c #FD8C55",
"_ 	c #FF8E3E",
": 	c #FF7405",
"< 	c #FF7C03",
"[ 	c #FFAA51",
"} 	c #F5613B",
"| 	c #F22506",
"1 	c #FF883E",
"2 	c #FF730E",
"3 	c #FF9946",
"4 	c #FF7C01",
"5 	c #FF8401",
"6 	c #FF8D01",
"7 	c #FFAD3E",
"8 	c #F77F51",
"9 	c #EF290A",
"0 	c #FD731E",
"a 	c #FF8E30",
"b 	c #FE994B",
"c 	c #FEA548",
"d 	c #FF8E03",
"e 	c #FF9601",
"f 	c #FF9E01",
"g 	c #FFB42B",
"h 	c #F99665",
"i 	c #EE270F",
"j 	c #F88843",
"k 	c #FDC466",
"l 	c #F64104",
"m 	c #FEA352",
"n 	c #F1320D",
"o 	c #F34515",
"p 	c #FFB44A",
"q 	c #FF9F01",
"r 	c #FFA604",
"s 	c #FFAD0A",
"t 	c #FFBB26",
"u 	c #FEC96B",
"v 	c #FFCB3E",
"w 	c #FECA65",
"x 	c #F12B06",
"y 	c #F33905",
"z 	c #F7691E",
"A 	c #FFBF49",
"B 	c #FFB40F",
"C 	c #FFBB15",
"D 	c #FFC21A",
"E 	c #FFC920",
"F 	c #FED058",
"G 	c #FA9640",
"H 	c #FFC543",
"I 	c #FFBC15",
"J 	c #FFC31B",
"K 	c #FFD025",
"L 	c #FFE15F",
"M 	c #F14022",
"N 	c #FBAF6C",
"O 	c #FFBE1C",
"P 	c #FFCA20",
"Q 	c #FFD126",
"R 	c #FFD72B",
"S 	c #FFE975",
"T 	c #F03811",
"U 	c #FBAF6E",
"V 	c #FFD05B",
"W 	c #FFC72A",
"X 	c #FFCA21",
"Y 	c #FFD82C",
"Z 	c #FFDF31",
"` 	c #FFEE79",
" .	c #F24E17",
"..	c #EE2109",
"+.	c #F77010",
"@.	c #FBA423",
"#.	c #FED458",
"$.	c #FFE172",
"%.	c #FFE46B",
"&.	c #FFE34A",
"*.	c #FFE637",
"=.	c #FFF26D",
"-.	c #F14C18",
";.	c #F0390F",
">.	c #F14612",
",.	c #F3641F",
"'.	c #FAB05B",
").	c #FDDB7D",
"!.	c #FFF778",
"~.	c #F25E1D",
"{.	c #F03F14",
"].	c #F14918",
"^.	c #F03A14",
".                               ",
"+ @                             ",
"  # $       %                   ",
"  & * =   - ; >                 ",
"    , ' ) ! ~ { ]               ",
"    ^ / ( _ : < [ }             ",
"    | 1 2 3 4 5 6 7 8       9   ",
"      0 a b c d e f g h i j k   ",
"      l m n o p q r s t u v w   ",
"      x y     z A s B C D E F   ",
"                G H I J E K L   ",
"              M N O J P Q R S T ",
"              U V W X Q Y Z `  .",
"            ..+.@.#.$.%.&.*.=.-.",
"                  ;.>.,.'.).!.~.",
"                          {.].^."};
